dataset
version=1
nRows=19
nColumns=39
inDegrees=no
endheader
time	sternoclavicular_r2	sternoclavicular_r3	unrotscap_r3	unrotscap_r2	acromioclavicular_r2	acromioclavicular_r3	acromioclavicular_r1	unrothum_r1	unrothum_r3	unrothum_r2	elv_angle	shoulder_elv	shoulder1_r2	shoulder_rot	elbow_flexion	pro_sup	deviation	flexion	cmc_abduction	cmc_flexion	mp_flexion	ip_flexion	mcp2_flexion	mcp2_abduction	pm2_flexion	md2_flexion	mcp3_flexion	mcp3_abduction	pm3_flexion	md3_flexion	mcp4_flexion	mcp4_abduction	pm4_flexion	md4_flexion	mcp5_flexion	mcp5_abduction	pm5_flexion	md5_flexion
4.575000	-0.056887	-0.568234	0.493644	0.229036	0.158462	0.352604	-0.343742	0.213872	-0.136400	0.152035	0.134735	0.027437	0.146525	0.146525	1.382998	3.885105	0.000000	0.000000	0.000000	0.000000	0.000000	0.000000	0.000000	0.000000	0.000000	0.000000	0.000000	0.000000	0.000000	0.000000	0.000000	0.000000	0.000000	0.000000	0.000000	0.000000	0.000000	0.000000
4.580000	-0.056956	-0.568767	0.496921	0.228031	0.157395	0.352557	-0.347358	0.215310	-0.139175	0.151180	0.133440	0.027437	0.146525	0.146525	1.386146	3.885014	0.000000	0.000000	0.000000	0.000000	0.000000	0.000000	0.000000	0.000000	0.000000	0.000000	0.000000	0.000000	0.000000	0.000000	0.000000	0.000000	0.000000	0.000000	0.000000	0.000000	0.000000	0.000000
4.585000	-0.057039	-0.569306	0.500222	0.227049	0.156350	0.352517	-0.350995	0.216755	-0.142004	0.150334	0.132139	0.027437	0.146525	0.146525	1.389223	3.884568	0.000000	0.000000	0.000000	0.000000	0.000000	0.000000	0.000000	0.000000	0.000000	0.000000	0.000000	0.000000	0.000000	0.000000	0.000000	0.000000	0.000000	0.000000	0.000000	0.000000	0.000000	0.000000
4.590000	-0.057138	-0.569850	0.503545	0.226090	0.155327	0.352483	-0.354647	0.218205	-0.144883	0.149498	0.130832	0.027437	0.146525	0.146525	1.392225	3.883762	0.000000	0.000000	0.000000	0.000000	0.000000	0.000000	0.000000	0.000000	0.000000	0.000000	0.000000	0.000000	0.000000	0.000000	0.000000	0.000000	0.000000	0.000000	0.000000	0.000000	0.000000	0.000000
4.595000	-0.057253	-0.570397	0.506884	0.225156	0.154329	0.352455	-0.358311	0.219656	-0.147811	0.148672	0.129520	0.027437	0.146525	0.146525	1.395147	3.882592	0.000000	0.000000	0.000000	0.000000	0.000000	0.000000	0.000000	0.000000	0.000000	0.000000	0.000000	0.000000	0.000000	0.000000	0.000000	0.000000	0.000000	0.000000	0.000000	0.000000	0.000000	0.000000
4.600000	-0.057383	-0.570947	0.510234	0.224247	0.153355	0.352432	-0.361979	0.221104	-0.150785	0.147856	0.128203	0.027437	0.146525	0.146525	1.397987	3.881055	0.000000	0.000000	0.000000	0.000000	0.000000	0.000000	0.000000	0.000000	0.000000	0.000000	0.000000	0.000000	0.000000	0.000000	0.000000	0.000000	0.000000	0.000000	0.000000	0.000000	0.000000	0.000000
4.605000	-0.057529	-0.571495	0.513591	0.223364	0.152409	0.352415	-0.365648	0.222545	-0.153802	0.147052	0.126883	0.027437	0.146525	0.146525	1.400738	3.879145	0.000000	0.000000	0.000000	0.000000	0.000000	0.000000	0.000000	0.000000	0.000000	0.000000	0.000000	0.000000	0.000000	0.000000	0.000000	0.000000	0.000000	0.000000	0.000000	0.000000	0.000000	0.000000
4.610000	-0.057691	-0.572041	0.516948	0.222509	0.151490	0.352401	-0.369312	0.223976	-0.156860	0.146259	0.125558	0.027437	0.146525	0.146525	1.403399	3.876858	0.000000	0.000000	0.000000	0.000000	0.000000	0.000000	0.000000	0.000000	0.000000	0.000000	0.000000	0.000000	0.000000	0.000000	0.000000	0.000000	0.000000	0.000000	0.000000	0.000000	0.000000	0.000000
4.615000	-0.057869	-0.572583	0.520301	0.221682	0.150600	0.352391	-0.372964	0.225393	-0.159956	0.145478	0.124231	0.027437	0.146525	0.146525	1.405965	3.874189	0.000000	0.000000	0.000000	0.000000	0.000000	0.000000	0.000000	0.000000	0.000000	0.000000	0.000000	0.000000	0.000000	0.000000	0.000000	0.000000	0.000000	0.000000	0.000000	0.000000	0.000000	0.000000
4.620000	-0.058063	-0.573117	0.523643	0.220883	0.149739	0.352383	-0.376601	0.226791	-0.163085	0.144710	0.122901	0.027437	0.146525	0.146525	1.408433	3.871132	0.000000	0.000000	0.000000	0.000000	0.000000	0.000000	0.000000	0.000000	0.000000	0.000000	0.000000	0.000000	0.000000	0.000000	0.000000	0.000000	0.000000	0.000000	0.000000	0.000000	0.000000	0.000000
4.625000	-0.058272	-0.573642	0.526969	0.220113	0.148908	0.352374	-0.380214	0.228165	-0.166244	0.143954	0.121569	0.027437	0.146525	0.146525	1.410800	3.867680	0.000000	0.000000	0.000000	0.000000	0.000000	0.000000	0.000000	0.000000	0.000000	0.000000	0.000000	0.000000	0.000000	0.000000	0.000000	0.000000	0.000000	0.000000	0.000000	0.000000	0.000000	0.000000
4.630000	-0.058497	-0.574154	0.530272	0.219371	0.148107	0.352365	-0.383799	0.229512	-0.169428	0.143212	0.120236	0.027437	0.146525	0.146525	1.413065	3.863827	0.000000	0.000000	0.000000	0.000000	0.000000	0.000000	0.000000	0.000000	0.000000	0.000000	0.000000	0.000000	0.000000	0.000000	0.000000	0.000000	0.000000	0.000000	0.000000	0.000000	0.000000	0.000000
4.635000	-0.058736	-0.574653	0.533545	0.218659	0.147338	0.352353	-0.387350	0.230826	-0.172634	0.142484	0.118902	0.027437	0.146525	0.146525	1.415224	3.859566	0.000000	0.000000	0.000000	0.000000	0.000000	0.000000	0.000000	0.000000	0.000000	0.000000	0.000000	0.000000	0.000000	0.000000	0.000000	0.000000	0.000000	0.000000	0.000000	0.000000	0.000000	0.000000
4.640000	-0.058990	-0.575133	0.536783	0.217975	0.146599	0.352336	-0.390861	0.232103	-0.175857	0.141771	0.117569	0.027437	0.146525	0.146525	1.417275	3.854890	0.000000	0.000000	0.000000	0.000000	0.000000	0.000000	0.000000	0.000000	0.000000	0.000000	0.000000	0.000000	0.000000	0.000000	0.000000	0.000000	0.000000	0.000000	0.000000	0.000000	0.000000	0.000000
4.645000	-0.059259	-0.575594	0.539979	0.217319	0.145892	0.352311	-0.394324	0.233338	-0.179091	0.141072	0.116238	0.027437	0.146525	0.146525	1.419218	3.849791	0.000000	0.000000	0.000000	0.000000	0.000000	0.000000	0.000000	0.000000	0.000000	0.000000	0.000000	0.000000	0.000000	0.000000	0.000000	0.000000	0.000000	0.000000	0.000000	0.000000	0.000000	0.000000
4.650000	-0.059540	-0.576032	0.543125	0.216690	0.145215	0.352277	-0.397736	0.234527	-0.182331	0.140388	0.114909	0.027437	0.146525	0.146525	1.421050	3.844261	0.000000	0.000000	0.000000	0.000000	0.000000	0.000000	0.000000	0.000000	0.000000	0.000000	0.000000	0.000000	0.000000	0.000000	0.000000	0.000000	0.000000	0.000000	0.000000	0.000000	0.000000	0.000000
4.655000	-0.059834	-0.576445	0.546216	0.216088	0.144569	0.352231	-0.401089	0.235663	-0.185572	0.139720	0.113583	0.027437	0.146525	0.146525	1.422772	3.838291	0.000000	0.000000	0.000000	0.000000	0.000000	0.000000	0.000000	0.000000	0.000000	0.000000	0.000000	0.000000	0.000000	0.000000	0.000000	0.000000	0.000000	0.000000	0.000000	0.000000	0.000000	0.000000
4.660000	-0.060139	-0.576830	0.549244	0.215510	0.143952	0.352170	-0.404379	0.236744	-0.188809	0.139068	0.112261	0.027437	0.146525	0.146525	1.424381	3.831873	0.000000	0.000000	0.000000	0.000000	0.000000	0.000000	0.000000	0.000000	0.000000	0.000000	0.000000	0.000000	0.000000	0.000000	0.000000	0.000000	0.000000	0.000000	0.000000	0.000000	0.000000	0.000000
4.665000	-0.060454	-0.577184	0.552202	0.214957	0.143364	0.352090	-0.407598	0.237763	-0.192034	0.138432	0.110946	0.027437	0.146525	0.146525	1.425879	3.824997	0.000000	0.000000	0.000000	0.000000	0.000000	0.000000	0.000000	0.000000	0.000000	0.000000	0.000000	0.000000	0.000000	0.000000	0.000000	0.000000	0.000000	0.000000	0.000000	0.000000	0.000000	0.000000
